<?xml version="1.0" standalone="no"?>
<!DOCTYPE svg PUBLIC "-//W3C//DTD SVG 20010904//EN"
 "http://www.w3.org/TR/2001/REC-SVG-20010904/DTD/svg10.dtd">
<svg version="1.0" xmlns="http://www.w3.org/2000/svg"
 width="320.000000pt" height="320.000000pt" viewBox="0 0 320.000000 320.000000"
 preserveAspectRatio="xMidYMid meet">

<g transform="translate(0.000000,320.000000) scale(0.100000,-0.100000)"
fill="#000000" stroke="none">
<path d="M715 2200 c-221 -47 -354 -219 -323 -416 20 -131 99 -221 227 -260
51 -15 231 -19 246 -5 6 5 28 14 50 21 82 25 136 63 174 120 56 82 66 115 65
205 -1 69 -6 90 -34 148 -37 76 -74 111 -166 157 -70 34 -165 46 -239 30z
m106 -121 c62 -20 134 -56 153 -77 39 -44 37 -133 -4 -177 -33 -35 -112 -56
-214 -58 -83 -2 -95 0 -138 25 -87 52 -100 161 -26 223 38 32 64 43 138 60 30
7 55 13 56 14 1 1 16 -4 35 -10z"/>
<path d="M2320 2197 c-87 -25 -190 -99 -223 -161 -46 -87 -61 -200 -36 -263
58 -142 99 -184 236 -237 65 -25 81 -27 170 -23 120 5 144 11 209 53 100 64
144 150 144 279 0 66 -4 82 -37 146 -67 130 -186 202 -352 214 -39 3 -85 0
-111 -8z m161 -122 c73 -11 140 -53 167 -105 12 -24 22 -54 22 -66 0 -26 -36
-81 -71 -106 -14 -11 -43 -24 -65 -29 -53 -12 -177 -1 -241 23 -43 16 -55 26
-72 62 -47 96 -8 161 128 212 31 12 63 20 71 18 8 -1 36 -6 61 -9z"/>
<path d="M1530 1679 c-30 -12 -40 -27 -40 -60 0 -45 27 -59 117 -59 65 0 83 3
96 18 23 25 21 65 -4 88 -24 21 -129 30 -169 13z"/>
<path d="M1275 1608 c-40 -22 -68 -54 -91 -103 -42 -89 -26 -175 41 -221 61
-43 61 -43 54 -129 -9 -100 -3 -133 29 -167 l26 -28 267 0 c253 0 268 1 292
21 40 30 51 81 38 167 -6 39 -11 75 -11 80 0 6 23 27 51 47 55 39 79 82 79
140 0 92 -91 205 -165 205 -63 0 -89 -73 -39 -107 53 -36 74 -62 74 -91 0 -32
-19 -52 -68 -72 -44 -17 -121 0 -182 40 -56 37 -75 37 -131 1 -63 -41 -130
-57 -178 -43 -46 14 -81 43 -81 67 0 23 47 85 64 85 19 0 46 33 46 56 0 11 -7
30 -16 42 -17 24 -64 29 -99 10z m351 -347 c12 -11 126 -51 146 -51 14 0 28
-54 28 -105 0 -9 -50 -11 -192 -11 l-193 1 -3 53 c-2 36 1 53 10 56 94 28 127
39 148 51 29 17 43 18 56 6z"/>
</g>
</svg>
